<svg xmlns="http://www.w3.org/2000/svg" viewBox="0 0 100 100">
  <defs>
    <linearGradient id="waBg" x1="0%" y1="0%" x2="100%" y2="100%">
      <stop offset="0%" stop-color="#61FD7D"/>
      <stop offset="100%" stop-color="#2BB826"/>
    </linearGradient>
    <clipPath id="rounded">
      <rect width="100" height="100" rx="22" ry="22"/>
    </clipPath>
  </defs>
  <!-- Background -->
  <rect width="100" height="100" rx="22" ry="22" fill="url(#waBg)"/>
  <!-- WhatsApp logo (phone in speech bubble) -->
  <g clip-path="url(#rounded)">
    <path
      d="M50 14C30.1 14 14 30.1 14 50c0 6.4 1.8 12.4 4.9 17.5L14 86l19-4.8C37.8 84.2 43.7 86 50 86c19.9 0 36-16.1 36-36S69.9 14 50 14z"
      fill="white"
    />
    <path
      d="M50 18.5c-17.4 0-31.5 14.1-31.5 31.5 0 5.9 1.6 11.4 4.4 16.2l.7 1.1-2.9 10.5 10.8-2.8 1.1.6C37.2 77.7 43.4 79.5 50 79.5c17.4 0 31.5-14.1 31.5-31.5S67.4 18.5 50 18.5z"
      fill="url(#waBg)"
    />
    <path
      d="M39.3 33.2c-.8-1.8-1.7-1.8-2.5-1.9-.6 0-1.4 0-2.1 0-.7 0-1.9.3-2.9 1.4-1 1.1-3.8 3.7-3.8 9s3.9 10.4 4.4 11.1c.5.7 7.5 11.9 18.5 16.2 9.2 3.6 11 2.9 13 2.7 2-.2 6.4-2.6 7.3-5.1.9-2.5.9-4.6.6-5.1-.3-.5-1-.8-2.1-1.3-1.1-.6-6.4-3.2-7.4-3.5-1-.4-1.7-.6-2.4.6-.7 1.2-2.8 3.5-3.4 4.2-.6.7-1.3.8-2.4.3-1.1-.6-4.6-1.7-8.8-5.4-3.2-2.9-5.4-6.4-6.1-7.5-.6-1.1-.1-1.7.5-2.3.5-.5 1.1-1.3 1.7-2 .5-.7.7-1.1 1.1-1.9.4-.7.2-1.4-.1-2z"
      fill="white"
    />
  </g>
</svg>
